<svg width="103" height="27" viewBox="0 0 103 27" fill="none" xmlns="http://www.w3.org/2000/svg">
<path d="M0.829296 14.1044V10.3544L15.8293 3.74929V8.06392L5.55941 12.1868L5.6979 11.9631V12.4957L5.55941 12.272L15.8293 16.3949V20.7095L0.829296 14.1044ZM39.0716 8.82031H34.4054C34.3202 8.21662 34.1462 7.6804 33.8834 7.21165C33.6206 6.73579 33.2833 6.33097 32.8713 5.99716C32.4594 5.66335 31.9836 5.40767 31.4438 5.23011C30.9111 5.05256 30.3323 4.96378 29.7073 4.96378C28.578 4.96378 27.5944 5.24432 26.7563 5.8054C25.9182 6.35937 25.2684 7.16903 24.8067 8.23438C24.3451 9.29261 24.1142 10.5781 24.1142 12.0909C24.1142 13.6463 24.3451 14.9531 24.8067 16.0114C25.2755 17.0696 25.9289 17.8686 26.7669 18.4084C27.605 18.9482 28.5745 19.218 29.6753 19.218C30.2932 19.218 30.8649 19.1364 31.3905 18.973C31.9232 18.8097 32.3955 18.5717 32.8074 18.2592C33.2194 17.9396 33.5603 17.5526 33.8301 17.098C34.1071 16.6435 34.2989 16.125 34.4054 15.5426L39.0716 15.5639C38.9509 16.5653 38.649 17.5312 38.1661 18.4616C37.6902 19.3849 37.0475 20.2124 36.2378 20.9439C35.4353 21.6683 34.4765 22.2436 33.3614 22.6697C32.2534 23.0888 30.9999 23.2983 29.6007 23.2983C27.6547 23.2983 25.9147 22.858 24.3806 21.9773C22.8536 21.0966 21.6462 19.8217 20.7584 18.1527C19.8777 16.4837 19.4374 14.4631 19.4374 12.0909C19.4374 9.71165 19.8848 7.6875 20.7797 6.01847C21.6746 4.34943 22.8891 3.07812 24.4232 2.20455C25.9573 1.32386 27.6831 0.883522 29.6007 0.883522C30.8649 0.883522 32.0368 1.06108 33.1164 1.41619C34.203 1.77131 35.1654 2.28977 36.0034 2.97159C36.8415 3.64631 37.5233 4.47372 38.0489 5.45383C38.5816 6.43395 38.9225 7.55611 39.0716 8.82031ZM44.347 20.4645C43.6439 20.4645 43.0402 20.2159 42.5359 19.7188C42.0387 19.2216 41.7902 18.6179 41.7902 17.9077C41.7902 17.2116 42.0387 16.6151 42.5359 16.1179C43.0402 15.6207 43.6439 15.3722 44.347 15.3722C45.0288 15.3722 45.6254 15.6207 46.1368 16.1179C46.6481 16.6151 46.9038 17.2116 46.9038 17.9077C46.9038 18.3764 46.7831 18.8061 46.5416 19.1967C46.3072 19.5803 45.9983 19.8892 45.6147 20.1236C45.2312 20.3509 44.8086 20.4645 44.347 20.4645ZM44.347 9.75781C43.6439 9.75781 43.0402 9.50923 42.5359 9.01207C42.0387 8.51491 41.7902 7.91122 41.7902 7.20099C41.7902 6.50497 42.0387 5.91193 42.5359 5.42188C43.0402 4.92472 43.6439 4.67614 44.347 4.67614C45.0288 4.67614 45.6254 4.92472 46.1368 5.42188C46.6481 5.91193 46.9038 6.50497 46.9038 7.20099C46.9038 7.67685 46.7831 8.11008 46.5416 8.50071C46.3072 8.88423 45.9983 9.18963 45.6147 9.4169C45.2312 9.64418 44.8086 9.75781 44.347 9.75781ZM50.1151 23V1.18182H58.723C60.3778 1.18182 61.7876 1.49787 62.9524 2.12997C64.1172 2.75497 65.005 3.625 65.6158 4.74006C66.2337 5.84801 66.5426 7.12642 66.5426 8.57528C66.5426 10.0241 66.2301 11.3026 65.6051 12.4105C64.9801 13.5185 64.0746 14.3814 62.8885 14.9993C61.7095 15.6172 60.282 15.9261 58.6058 15.9261H53.1193V12.2294H57.8601C58.7479 12.2294 59.4794 12.0767 60.0547 11.7713C60.6371 11.4588 61.0703 11.0291 61.3544 10.4822C61.6456 9.92827 61.7912 9.29261 61.7912 8.57528C61.7912 7.85085 61.6456 7.21875 61.3544 6.67898C61.0703 6.1321 60.6371 5.70952 60.0547 5.41122C59.4723 5.10582 58.7337 4.95312 57.8388 4.95312H54.728V23H50.1151ZM84.6999 0.159089L77.6686 26.2812H73.7588L80.7901 0.159089H84.6999ZM102.171 16.1499L87.1707 22.755V18.4403L97.4406 14.3175L97.3021 14.5412V14.0085L97.4406 14.2322L87.1707 10.1094V5.79474L102.171 12.3999V16.1499Z" fill="#F9FAFB"/>
</svg>
